<svg width="24" height="24" viewBox="0 0 24 24" fill="none" xmlns="http://www.w3.org/2000/svg">
<mask id="mask0_2:16" style="mask-type:alpha" maskUnits="userSpaceOnUse" x="2" y="2" width="20" height="20">
<path fill-rule="evenodd" clip-rule="evenodd" d="M17 9.5C17 5.35786 13.6421 2 9.5 2C5.35786 2 2 5.35786 2 9.5C2 13.6421 5.35786 17 9.5 17C11.2092 17 12.7849 16.4282 14.0462 15.4655L20.2415 21.6516C20.4368 21.8465 20.7531 21.8465 20.9483 21.6514L21.6421 20.958C21.8373 20.763 21.8376 20.4468 21.6428 20.2514L15.4626 14.0501C16.4271 12.7882 17 11.211 17 9.5ZM15 9.5C15 12.5376 12.5376 15 9.5 15C6.46243 15 4 12.5376 4 9.5C4 6.46243 6.46243 4 9.5 4C12.5376 4 15 6.46243 15 9.5Z" fill="white"/>
</mask>
<g mask="url(#mask0_2:16)">
<rect width="24" height="24" fill="#333333"/>
</g>
</svg>
