<svg width="40" height="40" viewBox="0 0 40 40" fill="none" xmlns="http://www.w3.org/2000/svg">
<path d="M20 0C8.95429 0 0 8.95429 0 20C0 31.0456 8.95429 39.9999 20 39.9999C31.0456 39.9999 39.9999 31.0456 39.9999 20C39.9882 8.95923 31.0408 0.0118024 20 0ZM20 37.1428C10.5322 37.1428 2.85711 29.4677 2.85711 20C2.85711 10.5322 10.5322 2.85711 20 2.85711C29.4677 2.85711 37.1428 10.5322 37.1428 20C37.1326 29.4635 29.4635 37.1326 20 37.1428Z" fill="white"/>
<path d="M20 7.14282C19.211 7.14282 18.5714 7.78241 18.5714 8.57142V18.5714H8.57144C7.78244 18.5714 7.14285 19.211 7.14285 20C7.14285 20.789 7.78244 21.4286 8.57144 21.4286H20C20.789 21.4286 21.4286 20.789 21.4286 20V8.57142C21.4286 7.78241 20.789 7.14282 20 7.14282Z" fill="white"/>
</svg>
