<svg width="40" height="40" viewBox="0 0 40 40" fill="none" xmlns="http://www.w3.org/2000/svg">
<path d="M20.0002 19.234C22.5848 19.234 24.6875 17.1312 24.6875 14.5465C24.6875 11.9618 22.5848 9.85901 20.0002 9.85901C17.4154 9.85901 15.3125 11.9618 15.3125 14.5465C15.3125 17.1312 17.4154 19.234 20.0002 19.234ZM20.0002 12.2028C21.2924 12.2028 22.3437 13.2542 22.3437 14.5465C22.3437 15.8389 21.2924 16.8903 20.0002 16.8903C18.7077 16.8903 17.6562 15.8389 17.6562 14.5465C17.6562 13.2542 18.7077 12.2028 20.0002 12.2028Z" fill="white"/>
<path d="M34.911 26.9531H27.0679C30.7302 23.4574 34.0625 20.0309 34.0625 14.0625C34.0625 6.02094 28.0242 0 20.0001 0C11.9598 0 5.93747 6.03883 5.93747 14.0625C5.93747 20.0309 9.26981 23.4574 12.9322 26.9531H5.08895L0.803406 40H39.1965L34.911 26.9531ZM8.28122 14.0625C8.28122 7.27219 13.2097 2.34375 20.0001 2.34375C26.7904 2.34375 31.7187 7.27219 31.7187 14.0625C31.7187 21.6592 25.3065 24.3498 20.0001 30.8924C18.4054 28.9263 16.7 27.3034 15.0415 25.7255C11.2645 22.1317 8.28122 19.293 8.28122 14.0625ZM4.98973 34.7656H13.4375V32.4219H5.75958L6.78606 29.2969H15.3125V29.2442C18.4254 32.3312 19.2676 33.8784 20.0001 34.8009C20.7507 33.8555 21.5654 32.3405 24.6875 29.2444V29.2969H33.214L34.2404 32.4219H26.5625V34.7656H35.0102L35.9597 37.6562H4.04028L4.98973 34.7656Z" fill="white"/>
</svg>
